<?xml version="1.0" encoding="UTF-8"?>
<!DOCTYPE svg PUBLIC "-//W3C//DTD SVG 1.1//EN" "http://www.w3.org/Graphics/SVG/1.1/DTD/svg11.dtd">
<!-- Creator: CorelDRAW 2018 (64-Bit) -->
<svg xmlns="http://www.w3.org/2000/svg" xml:space="preserve" width="0.833331in" height="0.5in" version="1.1" style="shape-rendering:geometricPrecision; text-rendering:geometricPrecision; image-rendering:optimizeQuality; fill-rule:evenodd; clip-rule:evenodd"
viewBox="0 0 833.33 500"
 xmlns:xlink="http://www.w3.org/1999/xlink">
 <defs>
  <style type="text/css">
   <![CDATA[
    .fil3 {fill:#2B2A29}
    .fil2 {fill:#FCC300}
    .fil0 {fill:#2B2A29;fill-rule:nonzero}
    .fil1 {fill:#FCC300;fill-rule:nonzero}
   ]]>
  </style>
 </defs>
 <g id="Layer_x0020_1">
  <metadata id="CorelCorpID_0Corel-Layer"/>
  <path class="fil0" d="M83.2 163.68m69.86 -38.65c0,9.26 -3.45,16.69 -10.34,22.5 -6.35,5.63 -14.34,8.35 -23.59,8.35 -6.53,0 -13.43,-1.45 -20.33,-4.54 -3.26,-0.91 -5.26,-1.27 -5.62,-1.27 -3.27,0 -5.63,2 -7.26,5.81l-2.72 0 0 -37.74 2.72 0c1.09,8.53 4.54,16.15 10.34,22.5 6.17,6.89 13.61,10.34 21.96,10.34 4.9,0 9.07,-1.27 12.52,-3.81 3.81,-2.72 5.81,-6.53 5.81,-11.25 0,-6.35 -4.54,-11.98 -13.79,-17.06l-25.59 -14.15c-9.26,-6.9 -13.97,-15.06 -13.97,-24.5 0,-8.71 2.9,-15.61 8.89,-20.87 5.81,-5.26 13.07,-7.98 21.78,-7.98 6.35,0 12.52,1.45 18.33,4.54 2.72,1.45 5.08,2.18 6.72,2.18 2.54,0 4.17,-2.18 4.9,-6.71l2.91 0 0 33.39 -2.91 0c-0.72,-7.26 -3.63,-13.61 -9.07,-19.24 -5.26,-5.63 -11.43,-8.35 -18.51,-8.35 -11.43,0 -17.06,4.36 -17.06,13.25 0,5.26 4.54,10.53 13.79,15.79l25.95 14.33c9.44,6.9 14.15,15.06 14.15,24.5zm11.25 38.65m57.52 -29.04c-6.71,14.15 -16.15,21.23 -27.94,21.23 -9.98,0 -17.42,-3.81 -22.69,-11.25 -4.54,-6.53 -6.89,-15.06 -6.89,-25.41 0,-10.16 2.72,-18.69 8.35,-25.41 5.99,-7.44 13.79,-11.07 23.77,-11.07 8.17,0 14.52,3.81 19.24,11.43 4.17,6.35 6.17,13.97 6.17,22.5l-37.74 0c0,6.71 1.63,12.7 4.9,18.15 3.81,6.35 8.71,9.62 15.06,9.62 5.81,0 11.07,-3.81 15.61,-11.43l2.18 1.63zm-17.96 -22.87c0,-6.71 -0.36,-11.61 -1.09,-14.7 -1.45,-6.17 -3.99,-9.26 -7.98,-9.26 -7.07,0 -10.7,7.98 -10.7,23.95l19.78 0zm24.86 51.9m37.38 -9.98l-37.38 0 0 -2.54c3.81,0 6.17,-1.09 7.26,-3.45 0.73,-1.63 1.09,-4.9 1.09,-10.16l0 -67.69c0,-5.08 -0.36,-8.35 -0.91,-9.8 -1.09,-2.54 -3.63,-3.81 -7.44,-3.81l0 -2.54 29.04 0 0 83.83c0,5.26 0.36,8.71 0.91,9.98 1.09,2.36 3.63,3.63 7.44,3.63l0 2.54zm4.72 9.98m37.38 -9.98l-37.38 0 0 -2.54c3.81,0 6.17,-1.09 7.26,-3.45 0.73,-1.63 1.09,-4.9 1.09,-10.16l0 -67.69c0,-5.08 -0.36,-8.35 -0.91,-9.8 -1.09,-2.54 -3.63,-3.81 -7.44,-3.81l0 -2.54 29.04 0 0 83.83c0,5.26 0.36,8.71 0.91,9.98 1.09,2.36 3.63,3.63 7.44,3.63l0 2.54zm7.44 9.98m57.53 -29.04c-6.72,14.15 -16.15,21.23 -27.95,21.23 -9.98,0 -17.42,-3.81 -22.68,-11.25 -4.54,-6.53 -6.9,-15.06 -6.9,-25.41 0,-10.16 2.72,-18.69 8.35,-25.41 5.99,-7.44 13.79,-11.07 23.77,-11.07 8.17,0 14.52,3.81 19.23,11.43 4.18,6.35 6.17,13.97 6.17,22.5l-37.74 0c0,6.71 1.63,12.7 4.9,18.15 3.81,6.35 8.71,9.62 15.06,9.62 5.81,0 11.07,-3.81 15.61,-11.43l2.18 1.63zm-17.96 -22.87c0,-6.71 -0.37,-11.61 -1.09,-14.7 -1.45,-6.17 -3.99,-9.26 -7.98,-9.26 -7.08,0 -10.7,7.98 -10.7,23.95l19.78 0zm26.85 51.9m59.89 -71.5c0,7.08 -2.54,10.53 -7.8,10.53 -2,0 -4.54,-0.91 -7.44,-2.91 -2.91,-1.81 -4.35,-2.72 -4.54,-2.72 -7.44,0 -11.25,8.71 -11.25,26.31l0 14.15c0,5.26 0.36,8.53 1.09,9.98 1.27,2.36 3.99,3.63 8.35,3.63l0 2.54 -38.29 0 0 -2.54c3.81,0 6.17,-1.45 7.26,-4.17 0.54,-1.27 0.72,-4.35 0.72,-9.44l0 -36.65c0,-4.9 -0.36,-8.17 -0.91,-9.62 -1.09,-2.54 -3.45,-3.81 -7.08,-3.81l0 -2.36 28.85 0 0 15.42c3.81,-5.44 6.71,-9.25 9.07,-11.61 4.18,-4.17 8.53,-6.17 12.89,-6.17 5.99,0 9.07,3.09 9.07,9.44z"/>
  <path class="fil1" d="M76.67 448.65m213.37 -175.35l-6.13 0c-3.68,-18.39 -11.85,-33.52 -25.34,-45.37 -13.49,-11.85 -29.02,-17.57 -47.41,-17.57 -25.34,0 -44.56,11.04 -58.04,32.7 -11.04,18.39 -16.76,40.88 -16.76,67.85 0,69.89 24.93,104.64 74.39,104.64 27.39,0 52.32,-13.9 75.62,-41.28l0 20.03c-23.3,24.53 -52.73,36.79 -87.47,36.79 -35.15,0 -64.17,-10.22 -86.65,-30.25 -23.71,-20.84 -35.56,-48.64 -35.56,-83.38 0,-33.93 11.85,-62.95 35.97,-86.65 24.11,-23.3 53.13,-35.15 87.06,-35.15 10.22,0 22.07,2.04 35.56,5.72 11.44,3.68 22.89,6.95 34.33,10.63 8.17,0 13.08,-5.31 14.31,-16.35l6.13 0 0 77.66zm24.12 175.35m84.2 -22.48l-84.2 0 0 -5.72c8.58,0 13.89,-2.45 16.35,-7.77 1.64,-3.68 2.45,-11.04 2.45,-22.89l0 -152.46c0,-11.44 -0.81,-18.8 -2.04,-22.07 -2.45,-5.72 -8.17,-8.59 -16.76,-8.59l0 -5.72 65.4 0 0 188.84c0,11.85 0.82,19.62 2.04,22.48 2.45,5.31 8.18,8.18 16.76,8.18l0 5.72zm10.63 22.48m67.44 -227.67c0,6.95 -2.45,13.08 -7.36,18.39 -4.91,5.31 -11.04,7.77 -17.98,7.77 -6.95,0 -13.08,-2.45 -17.98,-7.77 -4.91,-5.31 -7.36,-11.44 -7.36,-18.39 0,-6.95 2.45,-13.08 7.36,-17.98 4.9,-4.91 11.04,-7.36 17.98,-7.36 6.95,0 13.08,2.45 17.98,7.36 4.91,4.91 7.36,11.04 7.36,17.98zm16.76 205.19l-84.2 0 0 -5.72c8.58,0 13.9,-2.45 16.35,-7.77 1.63,-3.68 2.45,-11.04 2.45,-22.89l0 -82.57c0,-11.04 -0.82,-17.98 -2.04,-21.25 -2.45,-6.13 -8.18,-8.99 -16.76,-8.99l0 -5.31 65.4 0 0 118.13c0,11.85 0.81,19.62 2.04,22.48 2.45,5.31 8.17,8.18 16.76,8.18l0 5.72z"/>
  <path class="fil2" d="M617.97 228.35c46.33,0 83.9,37.56 83.9,83.9 0,46.33 -37.56,83.9 -83.9,83.9 -46.34,0 -83.9,-37.56 -83.9,-83.9 0,-46.34 37.56,-83.9 83.9,-83.9zm0 -33.12c64.62,0 117.02,52.39 117.02,117.02 0,64.63 -52.39,117.02 -117.02,117.02 -64.63,0 -117.02,-52.39 -117.02,-117.02 0,-64.63 52.39,-117.02 117.02,-117.02z"/>
  <polygon class="fil3" points="693.92,427.5 599.42,333 647.55,333 741.61,427.5 "/>
  <path class="fil3" d="M617.96 183.55c71.07,0 128.7,57.62 128.7,128.69 0,33.35 -12.69,63.73 -33.49,86.59l-0.06 0.07 7.07 7.09 0.05 -0.05c22.63,-24.68 36.44,-57.57 36.44,-93.7 0,-76.6 -62.1,-138.7 -138.7,-138.7 -35.72,0 -68.28,13.51 -92.87,35.69l-0.52 0.46 7.07 7.09 0.5 -0.45c22.77,-20.39 52.84,-32.8 85.81,-32.8z"/>
 </g>
</svg>
